g pb_Mesh134770
v 5.9604645E-07 0 72.02031
v -72.02031 0 1.1920929E-07
v 5.9604645E-07 14.357142 72.02031
v -72.02031 14.357142 1.1920929E-07
v -69.8 0 0
v 4.970202E-07 0 69.8
v -69.8 14.357142 0
v 4.970202E-07 14.357142 69.8
v 72.02031 0 -7.748604E-06
v 5.9604645E-07 0 72.02031
v 72.02031 14.357142 -7.748604E-06
v 5.9604645E-07 14.357142 72.02031
v 4.970202E-07 0 69.8
v 69.8 0 -7.6293945E-06
v 4.970202E-07 14.357142 69.8
v 69.8 14.357142 -7.6293945E-06
v -3.4570694E-06 0 -72.02031
v 72.02031 0 -7.748604E-06
v -3.4570694E-06 14.357142 -72.02031
v 72.02031 14.357142 -7.748604E-06
v 69.8 0 -7.6293945E-06
v -3.3863917E-06 0 -69.8
v 69.8 14.357142 -7.6293945E-06
v -3.3863917E-06 14.357142 -69.8
v -72.02031 0 1.1920929E-07
v -3.4570694E-06 0 -72.02031
v -72.02031 14.357142 1.1920929E-07
v -3.4570694E-06 14.357142 -72.02031
v -3.3863917E-06 0 -69.8
v -69.8 0 0
v -3.3863917E-06 14.357142 -69.8
v -69.8 14.357142 0
v -72.02031 0 1.1920929E-07
v 5.9604645E-07 0 72.02031
v -69.8 0 0
v 4.970202E-07 0 69.8
v 5.9604645E-07 14.357142 72.02031
v -72.02031 14.357142 1.1920929E-07
v 4.970202E-07 14.357142 69.8
v -69.8 14.357142 0
v 5.9604645E-07 0 72.02031
v 72.02031 0 -7.748604E-06
v 4.970202E-07 0 69.8
v 69.8 0 -7.6293945E-06
v 72.02031 14.357142 -7.748604E-06
v 5.9604645E-07 14.357142 72.02031
v 69.8 14.357142 -7.6293945E-06
v 4.970202E-07 14.357142 69.8
v 72.02031 0 -7.748604E-06
v -3.4570694E-06 0 -72.02031
v 69.8 0 -7.6293945E-06
v -3.3863917E-06 0 -69.8
v -3.4570694E-06 14.357142 -72.02031
v 72.02031 14.357142 -7.748604E-06
v -3.3863917E-06 14.357142 -69.8
v 69.8 14.357142 -7.6293945E-06
v -3.4570694E-06 0 -72.02031
v -72.02031 0 1.1920929E-07
v -3.3863917E-06 0 -69.8
v -69.8 0 0
v -72.02031 14.357142 1.1920929E-07
v -3.4570694E-06 14.357142 -72.02031
v -69.8 14.357142 0
v -3.3863917E-06 14.357142 -69.8
vt 101.852104 0
vt 0 0
vt 101.852104 14.357142
vt 0 14.357142
vt 98.71212 0
vt 0 0
vt 98.71212 14.357142
vt 0 14.357142
vt 101.852104 0
vt 0 0
vt 101.852104 14.357142
vt 0 14.357142
vt 98.71212 0
vt 0 0
vt 98.71212 14.357142
vt 0 14.357142
vt 101.852104 0
vt 0 0
vt 101.852104 14.357142
vt 0 14.357142
vt 98.71211 0
vt 0 0
vt 98.71211 14.357142
vt 0 14.357142
vt 101.8521 0
vt 0 0
vt 101.8521 14.357142
vt 0 14.357142
vt 98.71211 0
vt -3.8146973E-06 0
vt 98.71211 14.357142
vt -3.8146973E-06 14.357142
vt 0 0
vt 72.02031 72.02031
vt 2.2203064 0
vt 72.02031 69.8
vt 0 72.02031
vt 72.02031 0
vt 0 69.8
vt 69.8 0
vt 0 72.02032
vt 72.02031 0
vt 0 69.80001
vt 69.8 0
vt 0 0
vt 72.02031 72.02032
vt 2.2203064 0
vt 72.02031 69.80001
vt 72.02031 72.0203
vt -3.8146973E-06 0
vt 69.8 72.0203
vt -3.8146973E-06 2.2203064
vt 72.02031 0
vt 0 72.0203
vt 72.02031 2.2203064
vt 2.2203064 72.0203
vt 72.02031 0
vt 0 72.02031
vt 72.02031 2.2203064
vt 2.2203064 72.02031
vt 72.02031 72.02031
vt 3.8146973E-06 0
vt 69.8 72.02031
vt 3.8146973E-06 2.2203064
vn -0.70710677 0 0.70710677
vn -0.70710677 0 0.70710677
vn -0.70710677 0 0.70710677
vn -0.70710677 0 0.70710677
vn 0.7071068 0 -0.7071068
vn 0.7071068 0 -0.7071068
vn 0.7071068 0 -0.7071068
vn 0.7071068 0 -0.7071068
vn 0.7071068 0 0.70710677
vn 0.7071068 0 0.70710677
vn 0.7071068 0 0.70710677
vn 0.7071068 0 0.70710677
vn -0.70710677 0 -0.7071067
vn -0.70710677 0 -0.7071067
vn -0.70710677 0 -0.7071067
vn -0.70710677 0 -0.7071067
vn 0.7071067 0 -0.7071068
vn 0.7071067 0 -0.7071068
vn 0.7071067 0 -0.7071068
vn 0.7071067 0 -0.7071068
vn -0.70710677 0 0.7071068
vn -0.70710677 0 0.7071068
vn -0.70710677 0 0.7071068
vn -0.70710677 0 0.7071068
vn -0.70710677 0 -0.70710677
vn -0.70710677 0 -0.70710677
vn -0.70710677 0 -0.70710677
vn -0.70710677 0 -0.70710677
vn 0.7071068 0 0.7071068
vn 0.7071068 0 0.7071068
vn 0.7071068 0 0.7071068
vn 0.7071068 0 0.7071068
vn -0 -1 0
vn -0 -1 0
vn -0 -1 0
vn -0 -1 0
vn -0 1 0
vn -0 1 0
vn -0 1 0
vn -0 0.99999994 0
vn -0 -1 0
vn -0 -1 0
vn -0 -1 0
vn -0 -0.99999994 0
vn -0 1 0
vn -0 1 0
vn -0 1 0
vn -0 1 0
vn -0 -1 0
vn -0 -1 0
vn -0 -1 0
vn -0 -1 0
vn -0 1 0
vn -0 1 0
vn -0 1 0
vn -0 1 0
vn -0 -1 0
vn -0 -1 0
vn -0 -1 0
vn -0 -1 0
vn -0 0.99999994 0
vn -0 1 0
vn -0 1 0
vn -0 1 0
g pb_Mesh134770_0
f 3/3/3 2/2/2 1/1/1
f 3/3/3 4/4/4 2/2/2
f 7/7/7 6/6/6 5/5/5
f 7/7/7 8/8/8 6/6/6
f 11/11/11 10/10/10 9/9/9
f 11/11/11 12/12/12 10/10/10
f 15/15/15 14/14/14 13/13/13
f 15/15/15 16/16/16 14/14/14
f 19/19/19 18/18/18 17/17/17
f 19/19/19 20/20/20 18/18/18
f 23/23/23 22/22/22 21/21/21
f 23/23/23 24/24/24 22/22/22
f 27/27/27 26/26/26 25/25/25
f 27/27/27 28/28/28 26/26/26
f 31/31/31 30/30/30 29/29/29
f 31/31/31 32/32/32 30/30/30
f 35/35/35 34/34/34 33/33/33
f 35/35/35 36/36/36 34/34/34
f 39/39/39 38/38/38 37/37/37
f 39/39/39 40/40/40 38/38/38
f 43/43/43 42/42/42 41/41/41
f 43/43/43 44/44/44 42/42/42
f 47/47/47 46/46/46 45/45/45
f 47/47/47 48/48/48 46/46/46
f 51/51/51 50/50/50 49/49/49
f 51/51/51 52/52/52 50/50/50
f 55/55/55 54/54/54 53/53/53
f 55/55/55 56/56/56 54/54/54
f 59/59/59 58/58/58 57/57/57
f 59/59/59 60/60/60 58/58/58
f 63/63/63 62/62/62 61/61/61
f 63/63/63 64/64/64 62/62/62
